HD DESI ROCKERS RELEASES

Harry Potter and the Chamber of Secrets is a 2002 fantasy-adventure film directed by Chris Columbus and based on the novel by 

J. K. Rowling. The film is the second entry in the popular Harry Potter film series and was released on 15 November 2002 in 

the UK and North America. Steven Kloves returned to write the screenplay along with David Heyman who produced the film.

Most of the major cast and crew from Philosopher's Stone (known as Sorcerer's Stone in the United States and India) returned 

for Chamber of Secrets, including child stars Daniel Radcliffe, Emma Watson, and Rupert Grint. However, it was the last 

appearance by Richard Harris as Dumbledore and the last Harry Potter film directed by Columbus. New key actors included 

Kenneth Branagh as Gilderoy Lockhart and Jason Isaacs as Lucius Malfoy.

The film was very well received at the box office, making $879 million USD worldwide.It was nominated for three BAFTA Film 

Awards in 2003.


General
Complete name                    : Harry.Potter.2[Eng-Hindi]Dual.Audio[Brrip]720p-ahl07.mkv
Original name                    : Harry Potter and the chamber of secrets
Format                           : Matroska
File size                        : 832 MiB
Duration                         : 2h 34mn
Overall bit rate                 : 754 Kbps
Writing application              : AVI-Mux GUI 1.17.8.3, Feb 16 201019:42:50
Writing library                  : matroska muxer by Alexander Noe, build date Feb 16 2010

Video
ID                               : 1
Format                           : AVC
Format/Info                      : Advanced Video Codec
Format profile                   : High@L3.1
Format settings, CABAC           : Yes
Format settings, ReFrames        : 5 frames
Muxing mode                      : Container profile=Unknown@3.1
Codec ID                         : V_MPEG4/ISO/AVC
Duration                         : 2h 34mn
Bit rate                         : 483 Kbps
Width                            : 1 280 pixels
Height                           : 528 pixels
Display aspect ratio             : 2.40:1
Frame rate                       : 25.000 fps
Original frame rate              : 23.976 fps
Color space                      : YUV
Chroma subsampling               : 4:2:0
Bit depth                        : 8 bits
Scan type                        : Progressive
Bits/(Pixel*Frame)               : 0.029
Stream size                      : 533 MiB (64%)
Writing library                  : x264 core 67 r1139M 1024283
Language                         : English

Audio #1
ID                               : 2
Format                           : MPEG Audio
Format version                   : Version 1
Format profile                   : Layer 3
Mode                             : Joint stereo
Mode extension                   : MS Stereo
Codec ID                         : A_MPEG/L3
Codec ID/Hint                    : MP3
Duration                         : 2h 34mn
Bit rate mode                    : Constant
Bit rate                         : 96.0 Kbps
Channel(s)                       : 2 channels
Sampling rate                    : 48.0 KHz
Stream size                      : 106 MiB (13%)
Writing library                  : LAME3.96.1
Language                         : English

Audio #2
ID                               : 3
Format                           : MPEG Audio
Format version                   : Version 1
Format profile                   : Layer 3
Mode                             : Joint stereo
Mode extension                   : MS Stereo
Codec ID                         : A_MPEG/L3
Codec ID/Hint                    : MP3
Duration                         : 2h 34mn
Bit rate mode                    : Constant
Bit rate                         : 160 Kbps
Channel(s)                       : 2 channels
Sampling rate                    : 48.0 KHz
Video delay                      : 1s 600ms
Stream size                      : 177 MiB (21%)
Language                         : Hindi


Seeding Time will be 2:00 AM to 8:00 AM IST
Download and enjoy
Plz seed after Download
Below are Screens
Enjoy


              Screens
 
http://img19.imageshack.us/img19/8966/31532121.png 
http://img339.imageshack.us/img339/3357/54461270.png 
http://img194.imageshack.us/img194/9153/57687702.png 
http://img339.imageshack.us/img339/7550/53993295.png 
http://img228.imageshack.us/img228/5285/43826323.png 
http://img8.imageshack.us/img8/121/22735557.png 
http://img294.imageshack.us/img294/1530/68598571.png 
http://img295.imageshack.us/img295/757/21391288.png 
http://img25.imageshack.us/img25/898/25269285.png 
http://img713.imageshack.us/img713/1797/73795211.png